<?xml version="1.0" encoding="UTF-8" standalone="no"?>
<!-- Created with Inkscape (http://www.inkscape.org/) -->

<svg
   xmlns:dc="http://purl.org/dc/elements/1.1/"
   xmlns:cc="http://creativecommons.org/ns#"
   xmlns:rdf="http://www.w3.org/1999/02/22-rdf-syntax-ns#"
   xmlns:svg="http://www.w3.org/2000/svg"
   xmlns="http://www.w3.org/2000/svg"
   xmlns:sodipodi="http://sodipodi.sourceforge.net/DTD/sodipodi-0.dtd"
   xmlns:inkscape="http://www.inkscape.org/namespaces/inkscape"
   width="581.32635"
   height="376.66562"
   id="svg22426"
   version="1.1"
   inkscape:version="0.48.4 r9939"
   sodipodi:docname="New document 45">
  <defs
     id="defs22428" />
  <sodipodi:namedview
     id="base"
     pagecolor="#ffffff"
     bordercolor="#666666"
     borderopacity="1.0"
     inkscape:pageopacity="0.0"
     inkscape:pageshadow="2"
     inkscape:zoom="0.35"
     inkscape:cx="431.38204"
     inkscape:cy="348.75644"
     inkscape:document-units="px"
     inkscape:current-layer="layer1"
     showgrid="false"
     fit-margin-top="0"
     fit-margin-left="0"
     fit-margin-right="0"
     fit-margin-bottom="0"
     inkscape:window-width="472"
     inkscape:window-height="415"
     inkscape:window-x="0"
     inkscape:window-y="24"
     inkscape:window-maximized="0" />
  <metadata
     id="metadata22431">
    <rdf:RDF>
      <cc:Work
         rdf:about="">
        <dc:format>image/svg+xml</dc:format>
        <dc:type
           rdf:resource="http://purl.org/dc/dcmitype/StillImage" />
        <dc:title></dc:title>
      </cc:Work>
    </rdf:RDF>
  </metadata>
  <g
     inkscape:label="Layer 1"
     inkscape:groupmode="layer"
     id="layer1"
     transform="translate(56.38204,-504.45299)">
    <g
       transform="translate(982.81027,-214.72513)"
       id="g22417">
      <path
         inkscape:connector-curvature="0"
         id="path22415"
         d="m -834.62032,881.90733 c 0,0 10.09367,-93.36644 57.40775,-132.47941 47.31408,-39.11297 85.16534,-27.75759 116.0772,-20.18734 30.91186,7.57025 73.80996,17.66392 76.33338,22.0799 2.52342,4.41598 -6.30854,11.35538 -6.30854,11.35538 0,0 -28.38845,-15.1405 -49.8375,-2.52342 -21.44905,12.61709 -58.0386,35.9587 -36.58955,90.84303 21.44905,54.88433 21.44905,54.88433 21.44905,54.88433 l -70.02484,71.28654 z"
         style="fill:#591e48;fill-opacity:1;stroke:#ffffff;stroke-width:5;stroke-linecap:butt;stroke-linejoin:miter;stroke-miterlimit:4;stroke-opacity:1;stroke-dasharray:none" />
      <path
         inkscape:connector-curvature="0"
         id="path22411"
         d="m -854.80766,1020.0644 c 0,0 -21.44905,-93.36641 -69.39398,-82.64188 -47.94493,10.72452 -70.65568,92.73558 -70.65568,92.73558 l -9.77138,-3.1543 c 0,0 13.5565,-121.124 43.83751,-162.12953 30.28101,-41.00554 80.74936,-78.22594 164.65299,18.29477 83.90363,96.52072 83.90363,131.21776 83.90363,131.21776 z"
         style="fill:#591e48;fill-opacity:1;stroke:#ffffff;stroke-width:5;stroke-linecap:butt;stroke-linejoin:miter;stroke-miterlimit:4;stroke-opacity:1;stroke-dasharray:none" />
      <path
         sodipodi:nodetypes="csccsacc"
         style="fill:#591e48;fill-opacity:1;stroke:#ffffff;stroke-width:5;stroke-linecap:butt;stroke-linejoin:miter;stroke-miterlimit:4;stroke-opacity:1;stroke-dasharray:none"
         d="m -645.67256,1020.0644 c 0,0 30.91187,-85.1653 78.8568,-74.44077 47.94493,10.72452 70.02482,76.96427 70.02482,76.96427 l 11.66394,-6.3086 c 0,0 10.85906,-71.09067 -17.34162,-113.55377 -54.88433,-82.64193 -134.73876,-33.43738 -191.14888,-3.78513 -41.91977,22.03533 -78.22594,118.6006 -78.22594,118.6006 z"
         id="path22413"
         inkscape:connector-curvature="0" />
      <path
         sodipodi:nodetypes="acacacaca"
         inkscape:connector-curvature="0"
         id="path22409"
         d="m -855.58412,1046.117 c -0.89093,-10.6397 -7.1373,-31.2257 -7.1373,-31.2257 0,0 66.9549,-12.8791 100.8144,-12.4902 38.77432,0.4453 115.089,16.9511 115.089,16.9511 0,0 -6.35163,25.4064 -8.02947,38.363 -1.49144,11.5172 -1.78432,34.7943 -1.78432,34.7943 0,0 -67.42952,-15.2114 -101.70656,-15.1668 -33.68888,0.044 -99.92223,15.1668 -99.92223,15.1668 3.56388,-15.015 3.96902,-30.9566 2.67648,-46.3925 z"
         style="fill:#591e48;fill-opacity:1;stroke:#ffffff;stroke-width:5;stroke-linecap:butt;stroke-linejoin:miter;stroke-miterlimit:4;stroke-opacity:1;stroke-dasharray:none" />
      <path
         transform="translate(-11.598116,317.60995)"
         d="m -529.05251,446.58365 c 0,16.75275 -13.58079,30.33353 -30.33354,30.33353 -16.75275,0 -30.33353,-13.58078 -30.33353,-30.33353 0,-16.75275 13.58078,-30.33354 30.33353,-30.33354 16.75275,0 30.33354,13.58079 30.33354,30.33354 z"
         sodipodi:ry="30.333534"
         sodipodi:rx="30.333534"
         sodipodi:cy="446.58365"
         sodipodi:cx="-559.38605"
         id="path22403"
         style="color:#591e48;fill:#591e48;fill-opacity:1;fill-rule:nonzero;stroke:#ffffff;stroke-width:5;stroke-linecap:butt;stroke-linejoin:miter;stroke-miterlimit:4;stroke-opacity:1;stroke-dasharray:none;stroke-dashoffset:0;marker:none;visibility:visible;display:inline;overflow:visible;enable-background:accumulate"
         sodipodi:type="arc" />
      <path
         sodipodi:type="arc"
         style="color:#591e48;fill:#591e48;fill-opacity:1;fill-rule:nonzero;stroke:#ffffff;stroke-width:5;stroke-linecap:butt;stroke-linejoin:miter;stroke-miterlimit:4;stroke-opacity:1;stroke-dasharray:none;stroke-dashoffset:0;marker:none;visibility:visible;display:inline;overflow:visible;enable-background:accumulate"
         id="path22405"
         sodipodi:cx="-559.38605"
         sodipodi:cy="446.58365"
         sodipodi:rx="30.333534"
         sodipodi:ry="30.333534"
         d="m -529.05251,446.58365 c 0,16.75275 -13.58079,30.33353 -30.33354,30.33353 -16.75275,0 -30.33353,-13.58078 -30.33353,-30.33353 0,-16.75275 13.58078,-30.33354 30.33353,-30.33354 16.75275,0 30.33354,13.58079 30.33354,30.33354 z"
         transform="translate(68.696535,592.39609)" />
      <path
         transform="translate(-446.97356,595.96474)"
         d="m -529.05251,446.58365 c 0,16.75275 -13.58079,30.33353 -30.33354,30.33353 -16.75275,0 -30.33353,-13.58078 -30.33353,-30.33353 0,-16.75275 13.58078,-30.33354 30.33353,-30.33354 16.75275,0 30.33354,13.58079 30.33354,30.33354 z"
         sodipodi:ry="30.333534"
         sodipodi:rx="30.333534"
         sodipodi:cy="446.58365"
         sodipodi:cx="-559.38605"
         id="path22407"
         style="color:#591e48;fill:#591e48;fill-opacity:1;fill-rule:nonzero;stroke:#ffffff;stroke-width:5;stroke-linecap:butt;stroke-linejoin:miter;stroke-miterlimit:4;stroke-opacity:1;stroke-dasharray:none;stroke-dashoffset:0;marker:none;visibility:visible;display:inline;overflow:visible;enable-background:accumulate"
         sodipodi:type="arc" />
    </g>
  </g>
</svg>
